PathFileType	4	(X/Y/Z)	15_2_71_p1_0-305_filt_butterworth.trc
DataRate	CameraRate	NumFrames	NumMarkers	Units	OrigDataRate	OrigDataStartFrame	OrigNumFrames
60.0	60.0	7	27	m	60.0	152	305
Frame#	Time	RHip			RKnee			RAnkle			RBigToe			RSmallToe			RHeel			LHip			LKnee			LAnkle			LBigToe			LSmallToe			LHeel			Neck			Head			Nose			RShoulder			RElbow			RWrist			RThumb			RIndex			RPinky			LShoulder			LElbow			LWrist			LThumb			LIndex			LPinky			
		X1	Y1	Z1	X2	Y2	Z2	X3	Y3	Z3	X4	Y4	Z4	X5	Y5	Z5	X6	Y6	Z6	X7	Y7	Z7	X8	Y8	Z8	X9	Y9	Z9	X10	Y10	Z10	X11	Y11	Z11	X12	Y12	Z12	X13	Y13	Z13	X14	Y14	Z14	X15	Y15	Z15	X16	Y16	Z16	X17	Y17	Z17	X18	Y18	Z18	X19	Y19	Z19	X20	Y20	Z20	X21	Y21	Z21	X22	Y22	Z22	X23	Y23	Z23	X24	Y24	Z24	X25	Y25	Z25	X26	Y26	Z26	X27	Y27	Z27	
152	2.533333333333333	0.2650534430176993	0.2795083604988512	1.0752755578802182	0.2485381595049259	0.27045677521586914	1.5173179675085404	0.24903184918027532	0.22676066346752505	1.9640291902273976	0.23883670384306982	0.020513955457736318	1.8956550418959273	0.28785550947257277	0.05742197270258802	1.914909293696009	0.24458742340842404	0.27476936153614934	2.035784433297931	0.06655557361751359	0.2858520803996415	1.078261437234361	0.0896160631007372	0.2542883025583344	1.492914004221221	0.08125008376593951	0.21093693622170895	1.9625277555361378	0.09325659615827422	0.022975784813907038	1.8926902947848447	0.04939149742839091	0.04604954267128468	1.896119716153574	0.08840712975425566	0.2251271362110951	2.015270265531092	0.1312447180061429	0.4062159608691908	0.5216650437343724	0.0752626557100075	0.3923145080675093	0.26674368398606413	0.06819088923673707	0.3322509651712796	0.3974605904182723	0.2958304007431694	0.3586268623462897	0.595650208119563	0.35876163959010393	0.3790552590902181	0.8722277093635828	0.3616367016629283	0.3678805188041352	1.1068408441831479	0.35197729201358335	0.34976286608574253	1.224871668509734	0.3635030148298662	0.34148490774282625	1.2427083035767237	0.3582484929365783	0.36409953461236	1.2403468828060222	-0.013136754793447692	0.43227750009775384	0.6447700888089524	-0.012409935391796292	0.4276802286938128	0.9203582739757502	0.018406680987980192	0.36308938926177403	1.1203618083164875	0.0048219703305660624	0.3510475711367745	1.23981071875188	-0.0018702157947270727	0.3775737166478925	1.2887710332666922	-0.006388551341230234	0.42410622311297763	1.3003443100684235
153	2.55	0.2653704962958112	0.2738699377364438	1.0720505173366517	0.24742768370152107	0.2693777742131894	1.5188678326877563	0.24905452576641085	0.2267522837981733	1.9640651234182567	0.23894469312362995	0.021085982922170475	1.8964361281963522	0.28785998108292365	0.05752959445753565	1.9156284297712998	0.24515599119561937	0.27454654835086867	2.0358181038912937	0.06393069401819138	0.28244746171178947	1.0758645267664133	0.08969230095896279	0.2536749383990669	1.4936056429222617	0.0812459268967442	0.21090715253002507	1.9625055386834096	0.09335600926352187	0.023005568126174415	1.8928091164248428	0.04940033839163667	0.04603306870289564	1.8961094792658357	0.08853126776076915	0.2260561272810693	2.0167707262542764	0.13151832980657444	0.40506904580944986	0.5212743610587878	0.0761014214462145	0.3924845569688811	0.26712069278395206	0.07036462091806414	0.32882678161400014	0.3963261607008101	0.2953219487697963	0.35755129185401646	0.5952627733652698	0.3564583918784573	0.37834484853559425	0.869811759955094	0.35869628877118803	0.36755105554607503	1.105190359161688	0.34860248506825187	0.33650359335805635	1.22269125966756	0.3600117793713451	0.3331190023989009	1.2354830401308972	0.355062944341986	0.3619579493569698	1.2343626658462024	-0.01222691628656274	0.43108468663310584	0.6448119767187395	-0.012042055566007364	0.4257486808015654	0.9199930347549844	0.02158967235437386	0.3633301384897619	1.112797188227825	0.00479321146515999	0.35144985643997634	1.2400551103067121	-0.0020678600743662093	0.3783276039692445	1.289206807103033	-0.006500721221283255	0.42464231455151047	1.3004966090792447
154	2.566666666666667	0.2656422673989969	0.26961996989891956	1.070123835955793	0.24700842456214797	0.26824401988276037	1.5202419578544868	0.24907927968539378	0.22672155548185036	1.964153244148634	0.23897681064462728	0.021348305384833628	1.8968930499142391	0.2883080949496041	0.057871449496734485	1.9161286866053757	0.24559718946480003	0.27473444373618927	2.0375015832164176	0.06224593299887747	0.2815388442844792	1.0750666492826801	0.08969966771399616	0.25332737870919664	1.4955519636279015	0.08125205260502417	0.21094702905059973	1.9625207921438372	0.09347929635860158	0.02305976583956213	1.8929092035951893	0.049306490088791344	0.046305936322846165	1.8963949166800325	0.08858184712600956	0.22732155844453245	2.0173341266843043	0.13150427599949255	0.40504735420983046	0.5212669485201563	0.07640877945396991	0.3921316267278596	0.267815760349169	0.07165310484031563	0.32603100091184045	0.39544217771438006	0.2948103798710375	0.35646906037933074	0.5948719966149432	0.3541478757575256	0.3780956747771654	0.8659130761242931	0.3472219056030615	0.39486606053235496	1.112629909100764	0.3473824705752823	0.32728783661084576	1.222381040715753	0.35853584592607635	0.32934560295661136	1.2310909033015012	0.3513613922730034	0.359338563019953	1.2326855825889154	-0.011921359035313252	0.4312640411912486	0.6450293320020041	-0.012022428967131224	0.4250517661024109	0.9199708153178869	0.02547952203046714	0.36247530848970055	1.1064109722007682	0.004801458810647487	0.35150931090483134	1.2400972873753542	-0.0021208734439839933	0.37848759558084083	1.2892993459875255	-0.006507680744132979	0.42479817830364175	1.300532729626292
155	2.583333333333333	0.26583072995204227	0.26793324369305366	1.070444391713762	0.24711011513026448	0.2673862527221955	1.5208106745119443	0.24910746941886883	0.22667679776691851	1.9642664192873538	0.23901795760520028	0.021539478559184304	1.8970151738290788	0.2894388903972834	0.05806783622222429	1.9161022941353416	0.24583702319871711	0.27569940128343523	2.041216022108112	0.06161357627659066	0.283235912950219	1.0766936329931605	0.08962389387357017	0.2533209804603187	1.4973755203115997	0.08125677926305955	0.21099785078620414	1.962553291662343	0.09346032026681814	0.02308169363092993	1.8929300804099627	0.04924561025967123	0.04647931919998737	1.896600573043875	0.08859197817777764	0.22841048276129228	2.017642352605357	0.1314373121116344	0.40526985428643203	0.5213686452304268	0.07646333421819268	0.3916270561343546	0.2687195232532473	0.07202983377032862	0.3246463546511812	0.3950376987350425	0.29372588235614566	0.3540343206408043	0.5940385913091526	0.3516719396690832	0.37937402157471256	0.8616466812637978	0.3263050344262916	0.4467523370444392	1.1283347105345805	0.34741537248200577	0.32396471705920715	1.2226331420862373	0.35842491098877693	0.32888489126535453	1.2295719492084864	0.3486426406309986	0.3573405579818427	1.2329345349423717	-0.01195177500870805	0.43168884242353056	0.6452517804582166	-0.011847271954024616	0.42415761159506726	0.9200648589114572	0.03227191720040874	0.3642422902231144	1.1034605910768946	0.004813487715389112	0.35144947211991756	1.2400646920311706	-0.002106237246679361	0.3784055823364988	1.2892519753772467	-0.0064850305091531425	0.4247659648613366	1.3005185178058367
156	2.6	0.2655380331401493	0.2668899503894503	1.0713595731601695	0.2473947580275872	0.26703442834769864	1.5204065436794645	0.2491309454090234	0.22664393956590928	1.9643492872162833	0.23887475498600877	0.02148296836295522	1.8963257589575	0.29089213919633616	0.057104015622068766	1.9143960246704779	0.24594520225242056	0.2773069040663107	2.0451660008030528	0.061519542569263945	0.2854402406601866	1.0794006829720728	0.0896139627652758	0.2531197039046151	1.4976342849469755	0.08125469400910654	0.2110274846316321	1.9625684246324733	0.0929363281465876	0.022934243992907954	1.8927417721732818	0.049234217835943325	0.04652867274804271	1.8966864328145265	0.08859192808411889	0.22797281309379638	2.0173598684209026	0.131418124129033	0.4053594156565715	0.5214580747042081	0.07677465332219918	0.39140977173295505	0.2694388416959536	0.07195409456141946	0.32422270009256104	0.39495766039630104	0.2922135957345828	0.3506044198466099	0.5928864902293663	0.34934314450508736	0.3816337051505035	0.8597731143725937	0.3045437689929224	0.4918883521409536	1.1454044509674592	0.34772907987482093	0.3241192482233393	1.2228640755721556	0.3587109351969285	0.32950631217377657	1.2296857933825687	0.3475913747645236	0.35652740219394885	1.2334958393372193	-0.01203651416121754	0.43179818337075504	0.6453569221842919	-0.011200343327501265	0.42323785265401936	0.9202007699128507	0.041468595083190535	0.3707739241328622	1.1048802837976832	0.004818965361932057	0.35139806651878125	1.2400343365515758	-0.002084414967988552	0.3783162540895841	1.28920034882321	-0.006469309614085957	0.42470851502725593	1.300501019900574
157	2.6166666666666667	0.26460947179330974	0.2649941614004448	1.070378481708721	0.24768215742395563	0.2671791459084785	1.5195550796062542	0.24913661675936838	0.22664142364098588	1.9643695427342827	0.23814169091073642	0.020451678224794833	1.893981554830825	0.29183906068250903	0.05414973393616063	1.9101103215458246	0.2459560294649647	0.27909117655031535	2.047021446344209	0.061602555305599806	0.28663307389398457	1.0814220448277954	0.08999094862165344	0.25169597076462863	1.4963167507360142	0.08125066607603598	0.21103746169381196	1.9625639067442717	0.09163388874140843	0.022492460864275608	1.8922348931369168	0.049241030195540526	0.04651357689758299	1.8966855987258922	0.08856993558254149	0.22591950541740322	2.015812171911226	0.1314493329969605	0.4053158708782519	0.5215260099253414	0.07774755984170402	0.39132716085287556	0.269687547929415	0.07183470208208555	0.3244328446482043	0.39508686664314274	0.29096446754300476	0.34781586403851705	0.591960025468701	0.3481096242377507	0.3830712417123554	0.8619933447454273	0.29316919933322755	0.49575726895209804	1.1516177524791418	0.3479157325985889	0.3250139942943381	1.2229466942294647	0.35891499825358275	0.33000247884187345	1.2301215690345781	0.34759298556510915	0.3565034164443494	1.2337841124372546	-0.012081499403096475	0.4317215882593881	0.6452855283710281	-0.01028419482493604	0.42419884862199825	0.9203785659054395	0.04930113060134152	0.37847784399015205	1.108272538017755	0.004819470773385802	0.3513805702889619	1.240023346146798	-0.0020743993631435276	0.37828056900126583	1.2891797181060023	-0.006465004752816087	0.4246806287803153	1.3004935842661944
158	2.6333333333333333	0.26363562523568806	0.2630443612743477	1.0674827764359816	0.24790217981850976	0.26755782833632963	1.518884246398431	0.24912031560156392	0.22666611106293244	1.9643510674094666	0.23664974673066275	0.01788468252985009	1.889844802519811	0.2919670413368841	0.05005685761114519	1.904477939463478	0.24600796850312276	0.281012317921932	2.047148425395454	0.06182331572229299	0.28690874022763735	1.0822744435049714	0.09097944312235363	0.24842544333379452	1.4944831751999186	0.08125541412359154	0.21105140006984968	1.9625895628406658	0.0899216326096811	0.02186999093573616	1.8915625477009568	0.04924051607301066	0.04647101692374976	1.8966395796610795	0.08850141238363397	0.22405708536501012	2.0141645075022687	0.1315039459825873	0.4052325107468735	0.5215855226503658	0.07936579777443546	0.39045126274330727	0.2693856528862849	0.0719848730447794	0.3258235834331845	0.3955457928117891	0.29048054679724666	0.34679884810666584	0.5916379993825513	0.3484340745177742	0.3824194116005019	0.8672991909595051	0.29461753354388526	0.45435220941333826	1.1369154427382238	0.3479560775522401	0.3255317689187082	1.2229424163547002	0.35897279643187785	0.3301608087595189	1.2303644698082639	0.34784671753099133	0.35668402970801893	1.2338279584141905	-0.012121724634225298	0.43185593442140935	0.6448867990072985	-0.009619593156333137	0.4277349628499513	0.9205343326681101	0.052779926119167125	0.3826105015972744	1.110435937649985	0.00481846736046581	0.3513820773837788	1.2400238275590472	-0.002073433898791697	0.37827991220664464	1.2891793342977707	-0.006466114292370409	0.42467714502708187	1.3004931792952534
